<?xml version="1.0" encoding="UTF-8" standalone="no"?>
<svg
   xmlns:dc="http://purl.org/dc/elements/1.1/"
   xmlns:cc="http://creativecommons.org/ns#"
   xmlns:rdf="http://www.w3.org/1999/02/22-rdf-syntax-ns#"
   xmlns:svg="http://www.w3.org/2000/svg"
   xmlns="http://www.w3.org/2000/svg"
   xmlns:sodipodi="http://sodipodi.sourceforge.net/DTD/sodipodi-0.dtd"
   xmlns:inkscape="http://www.inkscape.org/namespaces/inkscape"
   version="1.1"
   id="Capa_1"
   x="0px"
   y="0px"
   width="24.000002"
   height="24"
   viewBox="0 0 18.84347 18.843469"
   xml:space="preserve"
   class=""
   inkscape:version="0.91 r13725"
   sodipodi:docname="qr-code.svg"><metadata
     id="metadata31"><rdf:RDF><cc:Work
         rdf:about=""><dc:format>image/svg+xml</dc:format><dc:type
           rdf:resource="http://purl.org/dc/dcmitype/StillImage" /><dc:title></dc:title></cc:Work></rdf:RDF></metadata><defs
     id="defs29" /><sodipodi:namedview
     pagecolor="#ffffff"
     bordercolor="#666666"
     borderopacity="1"
     objecttolerance="10"
     gridtolerance="10"
     guidetolerance="10"
     inkscape:pageopacity="0"
     inkscape:pageshadow="2"
     inkscape:window-width="1366"
     inkscape:window-height="705"
     id="namedview27"
     showgrid="false"
     fit-margin-top="0"
     fit-margin-left="0"
     fit-margin-right="0"
     fit-margin-bottom="0"
     inkscape:zoom="5.2149125"
     inkscape:cx="19.160987"
     inkscape:cy="19.347706"
     inkscape:window-x="-8"
     inkscape:window-y="-8"
     inkscape:window-maximized="1"
     inkscape:current-layer="Capa_1" /><g
     id="g3"
     transform="matrix(0.03330078,0,0,0.03330078,2.7283782,2.728379)"
     style="fill:#ffffff"><g
       id="g5"
       style="fill:#ffffff"><g
         id="g7"
         style="fill:#ffffff"><path
           d="m 0,401.991 182.724,0 0,-182.726 -182.724,0 0,182.726 z m 36.542,-146.178 109.636,0 0,109.352 -109.636,0 0,-109.352 z"
           data-original="#000000"
           class="active-path"
           id="path9"
           inkscape:connector-curvature="0"
           style="fill:#ffffff" /><rect
           x="73.088997"
           y="292.35501"
           width="36.543999"
           height="36.549"
           data-original="#000000"
           class="active-path"
           id="rect11"
           style="fill:#ffffff" /><rect
           x="292.35199"
           y="365.44901"
           width="36.553001"
           height="36.544998"
           data-original="#000000"
           class="active-path"
           id="rect13"
           style="fill:#ffffff" /><rect
           x="365.44199"
           y="365.44901"
           width="36.551998"
           height="36.544998"
           data-original="#000000"
           class="active-path"
           id="rect15"
           style="fill:#ffffff" /><polygon
           points="255.813,292.355 292.352,292.355 292.352,328.904 401.991,328.904 401.991,219.265 401.991,219.265 365.446,219.265 365.446,255.813 328.904,255.813 328.904,219.265 219.265,219.265 219.265,401.991 255.813,401.991 "
           data-original="#000000"
           class="active-path"
           id="polygon17"
           style="fill:#ffffff" /><path
           d="m 0,182.728 182.724,0 L 182.724,0 0,0 0,182.728 Z m 36.542,-146.186 109.636,0 0,109.636 -109.636,0 0,-109.636 z"
           data-original="#000000"
           class="active-path"
           id="path19"
           inkscape:connector-curvature="0"
           style="fill:#ffffff" /><rect
           x="73.088997"
           y="73.088997"
           width="36.543999"
           height="36.547001"
           data-original="#000000"
           class="active-path"
           id="rect21"
           style="fill:#ffffff" /><path
           d="m 219.265,0 0,182.728 182.729,0 0,-182.728 -182.729,0 z m 146.181,146.178 -109.633,0 0,-109.636 109.633,0 0,109.636 z"
           data-original="#000000"
           class="active-path"
           id="path23"
           inkscape:connector-curvature="0"
           style="fill:#ffffff" /><rect
           x="292.35199"
           y="73.088997"
           width="36.553001"
           height="36.547001"
           data-original="#000000"
           class="active-path"
           id="rect25"
           style="fill:#ffffff" /></g></g></g><rect
     style="opacity:1;fill:none;fill-opacity:1;fill-rule:nonzero;stroke:#000000;stroke-width:0;stroke-linecap:butt;stroke-linejoin:miter;stroke-miterlimit:4;stroke-dasharray:none;stroke-dashoffset:0;stroke-opacity:1"
     id="rect4159"
     width="18.84346"
     height="18.843458"
     x="4.9999999e-006"
     y="4.9999999e-006" /></svg>