<?xml version="1.0" encoding="UTF-8" standalone="no"?>
<!-- Generator: Adobe Illustrator 19.1.0, SVG Export Plug-In . SVG Version: 6.00 Build 0)  -->

<svg
   xmlns:dc="http://purl.org/dc/elements/1.1/"
   xmlns:cc="http://creativecommons.org/ns#"
   xmlns:rdf="http://www.w3.org/1999/02/22-rdf-syntax-ns#"
   xmlns:svg="http://www.w3.org/2000/svg"
   xmlns="http://www.w3.org/2000/svg"
   xmlns:sodipodi="http://sodipodi.sourceforge.net/DTD/sodipodi-0.dtd"
   xmlns:inkscape="http://www.inkscape.org/namespaces/inkscape"
   version="1.1"
   x="0px"
   y="0px"
   width="24px"
   height="24px"
   viewBox="0 0 24 24"
   enable-background="new 0 0 24 24"
   xml:space="preserve"
   id="svg2"
   inkscape:version="0.91 r13725"
   sodipodi:docname="round-search-24px.svg"><metadata
     id="metadata37"><rdf:RDF><cc:Work
         rdf:about=""><dc:format>image/svg+xml</dc:format><dc:type
           rdf:resource="http://purl.org/dc/dcmitype/StillImage" /></cc:Work></rdf:RDF></metadata><defs
     id="defs35" /><sodipodi:namedview
     pagecolor="#ffffff"
     bordercolor="#666666"
     borderopacity="1"
     objecttolerance="10"
     gridtolerance="10"
     guidetolerance="10"
     inkscape:pageopacity="0"
     inkscape:pageshadow="2"
     inkscape:window-width="1360"
     inkscape:window-height="705"
     id="namedview33"
     showgrid="false"
     inkscape:zoom="9.8333333"
     inkscape:cx="5.6862279"
     inkscape:cy="-1.1686588"
     inkscape:window-x="-8"
     inkscape:window-y="-8"
     inkscape:window-maximized="1"
     inkscape:current-layer="svg2" /><g
     id="Header_x2F_BG"
     display="none"><rect
       x="-358"
       y="-314"
       display="inline"
       fill="#F1F1F2"
       width="520"
       height="520"
       id="rect5" /></g><g
     id="Bounding_Boxes"><g
       id="ui_x5F_spec_x5F_header_copy_3"
       display="none" /><path
       fill="none"
       d="M0,0h24v24H0V0z"
       id="path9" /></g><g
     id="Rounded"
     style="fill:#ffffff"><g
       id="ui_x5F_spec_x5F_header_copy_5"
       display="none"
       style="fill:#ffffff" /><path
       d="M15.5,14h-0.79l-0.28-0.27c1.2-1.4,1.82-3.31,1.48-5.34c-0.47-2.78-2.79-5-5.59-5.34c-4.23-0.52-7.79,3.04-7.27,7.27   c0.34,2.8,2.56,5.12,5.34,5.59c2.03,0.34,3.94-0.28,5.34-1.48L14,14.71v0.79l4.25,4.25c0.41,0.41,1.08,0.41,1.49,0l0,0   c0.41-0.41,0.41-1.08,0-1.49L15.5,14z M9.5,14C7.01,14,5,11.99,5,9.5S7.01,5,9.5,5S14,7.01,14,9.5S11.99,14,9.5,14z"
       id="path13"
       style="fill:#ffffff" /></g><g
     id="Sharp"
     display="none"><g
       id="ui_x5F_spec_x5F_header_copy_4" /><path
       display="inline"
       d="M15.5,14h-0.79l-0.28-0.27C15.41,12.59,16,11.11,16,9.5C16,5.91,13.09,3,9.5,3S3,5.91,3,9.5   S5.91,16,9.5,16c1.61,0,3.09-0.59,4.23-1.57L14,14.71v0.79l5,4.99L20.49,19L15.5,14z M9.5,14C7.01,14,5,11.99,5,9.5S7.01,5,9.5,5   S14,7.01,14,9.5S11.99,14,9.5,14z"
       id="path17" /></g><g
     id="Outline"
     display="none"><g
       id="ui_x5F_spec_x5F_header" /><path
       display="inline"
       d="M15.5,14h-0.79l-0.28-0.27C15.41,12.59,16,11.11,16,9.5C16,5.91,13.09,3,9.5,3S3,5.91,3,9.5   S5.91,16,9.5,16c1.61,0,3.09-0.59,4.23-1.57L14,14.71v0.79l5,4.99L20.49,19L15.5,14z M9.5,14C7.01,14,5,11.99,5,9.5S7.01,5,9.5,5   S14,7.01,14,9.5S11.99,14,9.5,14z"
       id="path21" /></g><g
     id="Duotone"
     display="none"><g
       id="ui_x5F_spec_x5F_header_copy_2" /><g
       display="inline"
       id="g25"><path
         d="M15.5,14h-0.79l-0.28-0.27C15.41,12.59,16,11.11,16,9.5C16,5.91,13.09,3,9.5,3S3,5.91,3,9.5C3,13.09,5.91,16,9.5,16    c1.61,0,3.09-0.59,4.23-1.57L14,14.71v0.79l5,4.99L20.49,19L15.5,14z M9.5,14C7.01,14,5,11.99,5,9.5S7.01,5,9.5,5S14,7.01,14,9.5    S11.99,14,9.5,14z"
         id="path27" /></g></g><g
     id="Material"
     display="none"><g
       id="ui_x5F_spec_x5F_header_copy" /><path
       display="inline"
       d="M15.5,14h-0.79l-0.28-0.27C15.41,12.59,16,11.11,16,9.5C16,5.91,13.09,3,9.5,3S3,5.91,3,9.5   S5.91,16,9.5,16c1.61,0,3.09-0.59,4.23-1.57L14,14.71v0.79l5,4.99L20.49,19L15.5,14z M9.5,14C7.01,14,5,11.99,5,9.5S7.01,5,9.5,5   S14,7.01,14,9.5S11.99,14,9.5,14z"
       id="path31" /></g></svg>