<?xml version="1.0" encoding="UTF-8" standalone="no"?>
<!-- Created with Inkscape (http://www.inkscape.org/) -->

<svg
   xmlns:dc="http://purl.org/dc/elements/1.1/"
   xmlns:cc="http://creativecommons.org/ns#"
   xmlns:rdf="http://www.w3.org/1999/02/22-rdf-syntax-ns#"
   xmlns:svg="http://www.w3.org/2000/svg"
   xmlns="http://www.w3.org/2000/svg"
   xmlns:sodipodi="http://sodipodi.sourceforge.net/DTD/sodipodi-0.dtd"
   xmlns:inkscape="http://www.inkscape.org/namespaces/inkscape"
   width="58.702221mm"
   height="58.702221mm"
   viewBox="0 0 208 207.99999"
   id="svg4189"
   version="1.1"
   inkscape:version="0.91 r13725"
   sodipodi:docname="steem.svg"
   inkscape:export-filename="D:\varios\steemit\steem2.png"
   inkscape:export-xdpi="300"
   inkscape:export-ydpi="300">
  <defs
     id="defs4191">
    <inkscape:perspective
       id="perspective5221"
       inkscape:persp3d-origin="372.04723 : 350.78738 : 1"
       inkscape:vp_z="744.09449 : 526.18106 : 1"
       inkscape:vp_y="0 : 999.99993 : 0"
       inkscape:vp_x="30.728297 : 515.93829 : 1"
       sodipodi:type="inkscape:persp3d" />
    <inkscape:perspective
       id="perspective5221-7"
       inkscape:persp3d-origin="341.70592 : 431.77101 : 1"
       inkscape:vp_z="713.75318 : 607.1647 : 1"
       inkscape:vp_y="0 : 999.99993 : 0"
       inkscape:vp_x="0.38699063 : 596.92193 : 1"
       sodipodi:type="inkscape:persp3d" />
  </defs>
  <sodipodi:namedview
     id="base"
     pagecolor="#ffffff"
     bordercolor="#666666"
     borderopacity="1.0"
     inkscape:pageopacity="0.0"
     inkscape:pageshadow="2"
     inkscape:zoom="2.8"
     inkscape:cx="120.70696"
     inkscape:cy="140.7323"
     inkscape:document-units="px"
     inkscape:current-layer="layer1"
     showgrid="false"
     inkscape:window-width="1360"
     inkscape:window-height="705"
     inkscape:window-x="-8"
     inkscape:window-y="-8"
     inkscape:window-maximized="1"
     fit-margin-top="0"
     fit-margin-left="0"
     fit-margin-right="0"
     fit-margin-bottom="0" />
  <metadata
     id="metadata4194">
    <rdf:RDF>
      <cc:Work
         rdf:about="">
        <dc:format>image/svg+xml</dc:format>
        <dc:type
           rdf:resource="http://purl.org/dc/dcmitype/StillImage" />
        <dc:title></dc:title>
      </cc:Work>
    </rdf:RDF>
  </metadata>
  <g
     inkscape:label="Capa 1"
     inkscape:groupmode="layer"
     id="layer1"
     transform="translate(-321.5176,-405.88263)">
    <rect
       style="opacity:1;fill:none;fill-opacity:1;fill-rule:nonzero;stroke:#000000;stroke-width:0;stroke-linecap:butt;stroke-linejoin:miter;stroke-miterlimit:4;stroke-dasharray:none;stroke-dashoffset:0;stroke-opacity:1"
       id="rect4159"
       width="208"
       height="208.00002"
       x="321.51755"
       y="405.88263" />
    <path
       sodipodi:nodetypes="ccccsssssccssssscc"
       style="display:inline;opacity:1;fill:#666666;fill-opacity:1"
       d="m 425.02707,577.34173 c -0.50042,-0.60316 -0.37185,-1.3232 1.6104,-8.988 0.93121,-3.60119 1.93362,-7.71243 2.22766,-9.13611 0.63449,-3.07254 0.69818,-7.93852 0.13755,-10.50531 -0.99355,-4.54858 -1.4806,-5.66985 -14.0217,-32.28213 -9.38118,-19.90693 -12.07167,-26.34167 -14.46315,-34.5913 -1.54321,-5.32335 -1.9459,-9.18347 -1.30001,-12.46187 1.06696,-5.41576 5.47148,-12.39036 12.05215,-19.08466 4.20566,-4.2783 9.39738,-8.32142 10.68547,-8.32142 0.89283,0 0.91627,1.2667 0.14393,7.81432 -0.63726,5.40468 -0.7534,7.47866 -0.61979,11.06692 0.30512,8.19652 1.66355,12.6161 7.72199,25.12432 11.59358,23.93599 17.61505,37.29612 19.99978,44.37462 3.49191,10.36469 3.77384,15.02454 1.21694,20.11614 -1.96156,3.90604 -7.22215,11.03469 -12.11797,16.42113 -4.1453,4.56062 -11.53014,10.90597 -12.69265,10.90597 -0.11246,0 -0.37446,-0.20392 -0.58082,-0.45255 z"
       id="path4256-6-5-8"
       inkscape:connector-curvature="0" />
    <path
       sodipodi:nodetypes="ccccsssscccscscccsccscscccsscscc"
       style="display:inline;opacity:1;fill:#666666;fill-opacity:1"
       d="m 468.4682,562.42927 c 0,-0.32387 0.53769,-2.61905 1.19494,-5.10097 2.13884,-8.07722 2.55233,-10.48534 2.39035,-13.91981 -0.11133,-2.36236 -0.36247,-3.71661 -1.07797,-5.81963 -0.51276,-1.50746 -4.31096,-9.92438 -8.43988,-18.70434 -8.45797,-17.98541 -10.17976,-21.93567 -12.17877,-27.94167 -1.92154,-5.77326 -2.50764,-9.19481 -2.08163,-12.15204 0.67394,-4.67816 4.60281,-10.78011 10.7072,-16.62966 4.82708,-4.62549 7.35432,-6.15033 7.35384,-4.43709 -1.2e-4,0.37687 -0.28488,3.15196 -0.63226,6.16685 -1.22964,10.66474 -0.28001,14.9632 6.32488,28.62646 11.53516,23.86299 14.83381,31.53918 16.71632,38.90085 1.01084,3.95282 0.92387,7.17214 -0.26351,9.76642 -1.945,4.24831 -7.58359,11.53478 -12.82662,16.57514 -4.93724,4.74638 -7.18665,6.2079 -7.18665,4.66949 z m -86.5876,0.0554 c -0.0742,-0.12557 0.69411,-3.44884 1.70764,-7.38502 1.71586,-6.66397 1.84398,-7.39768 1.86135,-10.65878 0.03,-5.63508 0.0412,-5.60217 -10.01978,-26.95151 -8.43203,-17.89085 -10.11022,-21.80487 -12.18657,-28.42297 -2.30061,-7.33283 -2.21012,-11.48058 0.3531,-16.19168 2.46397,-4.52835 8.36269,-11.23857 12.82712,-14.5919 1.98712,-1.49256 2.8983,-1.84874 3.25458,-1.27228 0.0937,0.15182 -0.10308,2.58446 -0.43762,5.40554 -0.72601,6.1227 -0.7576,8.70054 -0.15519,12.69434 0.6871,4.55834 2.16739,8.49213 6.80505,18.08312 11.70287,24.20268 15.19741,32.49344 16.62107,39.43371 0.60264,2.93778 0.60477,4.20555 0.0113,6.49638 -0.98457,3.7995 -6.37392,11.27685 -12.61296,17.49992 -4.85421,4.84177 -7.4926,6.76777 -8.02886,5.86113 z"
       id="path4254-8-1"
       inkscape:connector-curvature="0" />
    <g
       style="font-style:normal;font-variant:normal;font-weight:bold;font-stretch:normal;font-size:23.26600456px;line-height:125%;font-family:'Berlin Sans FB Demi';-inkscape-font-specification:'Berlin Sans FB Demi, Bold';text-align:start;letter-spacing:0px;word-spacing:0px;writing-mode:lr-tb;text-anchor:start;fill:#000000;fill-opacity:1;stroke:none;stroke-width:1px;stroke-linecap:butt;stroke-linejoin:miter;stroke-opacity:1"
       id="text4137"
       transform="translate(-8.2392578e-5,9.6428571)">
      <path
         d="m 382.76292,422.61767 q 0,3.02185 -1.64725,5.20304 -1.68134,2.23799 -4.58959,2.86281 0.56802,1.15876 1.69269,2.12439 0.10225,0.0795 0.10225,0.14768 0,0.45441 -2.79465,0.45441 -2.05622,0 -2.53336,-0.15904 -0.26129,-0.0909 -0.32945,-0.42033 -0.13632,-0.6589 -0.0909,-2.19255 -2.78329,-0.69298 -4.41918,-2.93097 -1.59045,-2.16983 -1.59045,-5.08944 0,-3.53307 2.27207,-5.94147 2.31751,-2.46519 5.82786,-2.46519 3.48763,0 5.81651,2.47655 2.28343,2.41976 2.28343,5.93011 z m -4.30558,-0.0227 q 0,-1.7495 -1.01107,-2.91961 -1.06787,-1.22692 -2.78329,-1.22692 -1.77221,0 -2.806,1.21556 -0.98835,1.14739 -0.98835,2.95369 0,1.84038 0.96563,2.95369 1.01107,1.18148 2.82872,1.18148 1.76086,0 2.80601,-1.21556 0.98835,-1.15876 0.98835,-2.94233 z"
         id="path4162"
         inkscape:connector-curvature="0" />
      <path
         d="m 398.01987,430.45631 q 0,0.0795 -0.2272,0.11361 -0.4317,0.0682 -2.16983,0.0682 -1.48821,0 -2.02215,-0.0682 -0.24992,-0.0341 -0.284,-0.0568 -0.0682,-0.0341 -0.15905,-0.2272 -0.1704,-0.44306 -0.49985,-1.3178 -0.44306,-1.13604 -1.38597,-3.35131 -0.20448,-0.44305 -0.94291,-0.48849 0.34081,0.0227 -1.17011,0.0227 -0.17041,0 -0.17041,0.57938 0,0.7725 0.13633,2.30615 0.14768,1.53364 0.14768,2.30615 0,0.19312 -0.10224,0.22721 -0.15905,0.0114 -0.31809,0.0227 -0.67026,0.0454 -2.09031,0.0454 -1.62453,0 -1.95398,-0.0682 -0.32945,-0.0682 -0.32945,-0.35218 0,-1.24963 0.1136,-3.77163 0.12497,-2.522 0.12497,-3.783 0,-4.80543 -0.21585,-7.49783 l -0.0114,-0.15905 q -0.0114,-0.19312 0.35217,-0.26129 0.37489,-0.0682 3.47627,-0.13632 2.10167,-0.0454 3.3513,-0.0454 2.59017,0 4.22606,1.17011 1.85173,1.3178 1.85173,3.80572 0,1.65861 -0.47713,2.64696 -0.47714,0.98836 -1.76086,1.9199 -0.26128,0.18177 -0.26128,0.34082 0,-0.0114 1.38596,2.85144 1.38596,2.86281 1.38596,3.15818 z m -4.77135,-10.19024 q 0,-1.38596 -0.90882,-1.91989 -0.70435,-0.40898 -2.20391,-0.40898 -1.07924,0 -1.1474,0.32945 -0.0682,0.38625 -0.0682,2.22663 0,0.26129 0.0114,0.77251 0.0114,0.51121 0.0114,0.76114 0,0.0568 0.36353,0.1136 0.69298,0.10225 1.45413,0.10225 2.48791,0 2.48791,-1.97671 z"
         id="path4164"
         inkscape:connector-curvature="0" />
      <path
         d="m 416.17372,418.10761 q 0,0.2272 -0.24993,0.2272 -0.43169,0 -3.41947,-0.1704 -0.0682,2.87417 -0.0682,4.0102 0,1.34053 0.10224,4.03293 0.11361,2.6924 0.11361,4.03293 0,0.21584 -0.10225,0.27264 -0.0341,0.0227 -0.31809,0.0568 -0.68162,0.0909 -1.99942,0.0909 -1.46548,0 -2.05622,-0.0909 -0.31809,-0.0568 -0.31809,-0.35218 0,-1.34052 0.1136,-4.02156 0.1136,-2.68104 0.1136,-4.02157 0,-0.8861 -0.0909,-3.9534 -2.27207,0.22721 -3.62395,0.22721 -0.18177,0 -0.18177,-0.11361 0,-0.14768 0.15905,-0.87474 0.18176,-0.79523 0.20448,-0.96563 0.0341,-0.53394 0.0795,-1.06788 0.0795,-0.85202 0.27265,-0.85202 0.0227,0 0.15904,0.0114 1.84038,0.23857 5.44161,0.23857 1.02243,0 3.77164,-0.21585 1.47684,-0.1136 1.4882,-0.1136 0.22721,0 0.26129,0.0341 0.0341,0.0227 0.0454,0.21584 0,0.30673 -0.0227,0.85203 -0.0227,0.6021 -0.0227,0.85203 0,0.284 0.0682,0.84066 0.0795,0.5453 0.0795,0.81795 z"
         id="path4166"
         inkscape:connector-curvature="0" />
      <path
         d="m 428.71555,424.88974 q 0,0.87475 0.10224,2.60152 0.10225,1.72677 0.10225,2.59016 0,0.45441 -0.39762,0.4885 -1.40868,0.10224 -3.22634,0.10224 -0.21584,0 -0.29537,-0.64754 -0.0682,-0.6589 -0.1704,-0.67026 -0.0909,0.0454 -0.23857,0.19312 -1.27236,1.28372 -2.72648,1.28372 -2.21527,0 -3.6694,-1.74949 -1.3746,-1.63589 -1.3746,-3.90796 0,-2.62424 1.42004,-4.22605 1.47685,-1.65862 4.04429,-1.65862 1.78357,0 2.81737,1.24964 0.0454,0.0568 0.0795,0.0568 0.10224,0 0.22721,-0.5453 0.13632,-0.55666 0.31809,-0.55666 0.42033,0 1.60181,0.23857 1.12467,0.22721 1.61317,0.38625 0.1704,0.0682 0.1704,0.18177 0,0.0454 -0.0341,0.23856 -0.36353,2.05623 -0.36353,4.35102 z m -3.65803,0.0682 q 0,-0.96563 -0.61346,-1.59045 -0.6021,-0.63618 -1.57909,-0.63618 -0.97699,0 -1.57909,0.62482 -0.6021,0.62482 -0.6021,1.60181 0,0.92019 0.63618,1.57909 0.63618,0.6589 1.54501,0.6589 0.96563,0 1.57909,-0.62482 0.61346,-0.63618 0.61346,-1.61317 z"
         id="path4168"
         inkscape:connector-curvature="0" />
      <path
         d="m 442.29117,427.61622 q 0,3.2377 -1.36324,4.64639 -1.40869,1.44276 -4.68047,1.44276 -0.95427,0 -2.60152,-0.30673 -2.10166,-0.38625 -2.10166,-0.90882 0,-0.21585 0.48849,-2.22663 0.0795,-0.31809 0.24993,-0.31809 0.0568,0.0114 0.12496,0.0454 1.7495,0.86338 3.2377,0.86338 0.81795,0 1.62453,-0.40897 0.97699,-0.48849 0.97699,-1.22692 l 0,-0.76114 q -1.15875,1.09059 -2.97641,1.09059 -2.13574,0 -3.51035,-1.53364 -1.32916,-1.47685 -1.32916,-3.63532 0,-2.16982 1.27236,-3.60123 1.32916,-1.48821 3.47627,-1.48821 1.71541,0 2.62424,1.22692 0.18177,0.24993 0.24993,0.24993 0.10224,0 0.10224,-0.40897 0,-0.90883 0.20449,-0.90883 0.18176,0 1.96534,0.19313 1.78357,0.18176 1.85174,0.20448 0.19312,0.0682 0.19312,0.29537 0,0.78387 -0.0568,2.34023 -0.0454,1.55637 -0.0454,2.34024 0,0.46577 0.0114,1.39732 0.0114,0.93155 0.0114,1.39732 z m -3.93068,-3.14681 q 0,-0.82931 -0.55666,-1.43141 -0.5453,-0.61346 -1.3746,-0.61346 -0.82931,0 -1.38597,0.62482 -0.54529,0.61346 -0.54529,1.44277 0,0.8293 0.55665,1.4314 0.56802,0.6021 1.37461,0.6021 0.8293,0 1.3746,-0.61346 0.55666,-0.61346 0.55666,-1.44276 z"
         id="path4170"
         inkscape:connector-curvature="0" />
      <path
         d="m 463.75088,420.70913 q 0,2.7492 -1.44276,4.45326 -1.54501,1.80629 -4.26014,1.80629 -0.45441,0 -1.3746,-0.0454 -0.90883,-0.0568 -1.36324,-0.0568 -0.4885,0 -0.4885,0.42033 0,0.52258 0.10225,1.55637 0.10224,1.03379 0.10224,1.54501 0,0.26129 -0.23857,0.26129 -0.69298,0 -2.07894,-0.0454 -1.38597,-0.0341 -2.07895,-0.0341 -0.32945,0 -0.32945,-0.32945 0,-1.261 0.0341,-3.783 0.0454,-2.53336 0.0454,-3.79436 0,-3.56715 -0.30673,-7.49783 l -0.0114,-0.15905 q -0.0227,-0.21585 0.34081,-0.26129 0.88611,-0.1136 3.90797,-0.1136 1.78357,0 3.41946,0.0454 2.69241,0.0795 4.33966,1.69269 1.68133,1.65862 1.68133,4.33966 z m -4.53278,0.18176 q 0,-2.64696 -2.5788,-2.64696 -1.81766,0 -1.90854,0.20449 -0.0795,0.14768 -0.0795,2.62424 0,0.35217 0.0227,1.04515 0.0341,0.68162 0.0341,1.03379 0,0.22721 2.04486,0.22721 2.4652,0 2.4652,-2.48792 z"
         id="path4172"
         inkscape:connector-curvature="0" />
      <path
         d="m 475.64517,424.40124 q 0,1.1474 -0.73843,1.30644 -0.12496,0.0227 -2.35159,0.24993 -1.34052,0.14769 -3.99884,0.35217 0.15904,0.73843 0.96563,1.12468 0.6589,0.31809 1.49956,0.31809 1.01107,0 2.03351,-0.5453 0.43169,-0.27265 0.86338,-0.5453 0.23857,0.11361 0.79523,1.15876 0.56802,1.04515 0.56802,1.32916 0,0.0795 -0.17041,0.26129 -1.38596,1.48821 -4.30557,1.48821 -2.70377,0 -4.36238,-1.57909 -1.70405,-1.60181 -1.70405,-4.28286 0,-2.61288 1.52228,-4.28285 1.56773,-1.72677 4.15789,-1.72677 2.18119,0 3.70348,1.59045 1.52229,1.59045 1.52229,3.78299 z m -3.97613,-0.69298 q 0,-0.70434 -0.49985,-1.23828 -0.49986,-0.53393 -1.19284,-0.53393 -0.7157,0 -1.18148,0.6021 -0.43169,0.55665 -0.43169,1.30644 0,0.30673 0.31809,0.30673 0.84067,0 2.61288,-0.26129 0.37489,-0.0568 0.37489,-0.18177 z"
         id="path4174"
         inkscape:connector-curvature="0" />
      <path
         d="m 484.47216,427.24133 q 0,0.34081 -0.0909,1.03379 -0.0795,0.69299 -0.0795,1.02244 0,0.31809 -0.0682,0.40897 -0.0682,0.0909 -0.3749,0.26129 -1.46548,0.80658 -3.24906,0.80658 -3.28314,0 -3.28314,-2.51064 0,-0.74978 0.0568,-2.24935 0.0568,-1.51092 0.0568,-2.26071 0,-0.49985 -0.57937,-0.49985 -0.0455,0 -0.14769,0 -0.10224,0.0114 -0.14768,0.0114 -0.4317,0 -0.4317,-0.30673 0,-0.18177 0.0227,-0.55666 0.0341,-0.37489 0.0341,-0.55666 0,-0.23856 -0.0341,-0.72706 -0.0227,-0.48849 -0.0227,-0.72706 0,-0.22721 0.72707,-0.24993 0.40897,-0.0114 0.44305,-0.22721 0.0682,-0.43169 0.0454,-1.36324 -0.0454,-1.46548 -0.0454,-1.39732 0,-1.3178 0.24993,-1.3178 0.30673,0 0.87474,0.13632 0.64754,0.14769 0.89747,0.17041 0.57938,0.0795 1.7495,0.21584 0.28401,0.0227 0.28401,0.19313 0,0.45441 -0.0795,1.3746 -0.0682,0.92019 -0.0682,1.38597 0,0.55665 0.32945,0.55665 0.39761,0 1.2042,-0.0341 0.80658,-0.0341 1.21556,-0.0341 0.24992,0 0.24992,0.17041 0,0.26128 -0.0568,0.78386 -0.0568,0.52258 -0.0568,0.78386 0,0.27265 0.0114,0.79523 0.0114,0.52258 0.0114,0.79522 0,0.23857 -0.32945,0.23857 -0.22721,0 -0.76114,-0.0114 -0.53394,-0.0227 -0.76115,-0.0227 l -0.85202,0 q -0.17041,0 -0.17041,0.49986 0,0.27264 0,0.80658 0.0114,0.5453 0.0114,0.80659 0,0.95427 0.21585,1.3178 0.30673,0.48849 1.2042,0.48849 0.28401,0 0.80658,-0.12496 0.53394,-0.13633 0.74979,-0.13633 0.23856,0 0.23856,0.24993 z"
         id="path4176"
         inkscape:connector-curvature="0" />
    </g>
    <g
       style="font-style:normal;font-variant:normal;font-weight:bold;font-stretch:normal;font-size:20.06409454px;line-height:125%;font-family:'Berlin Sans FB Demi';-inkscape-font-specification:'Berlin Sans FB Demi, Bold';text-align:start;letter-spacing:0px;word-spacing:0px;writing-mode:lr-tb;text-anchor:start;fill:#000000;fill-opacity:1;stroke:none;stroke-width:1px;stroke-linecap:butt;stroke-linejoin:miter;stroke-opacity:1"
       id="text4137-7"
       transform="translate(31.232584,-13.569625)">
      <path
         d="m 353.62838,594.32183 q 0,2.37086 -1.2442,3.8404 -1.33239,1.55771 -3.67385,1.55771 -0.39188,0 -1.18543,-0.0392 -0.78375,-0.049 -1.17563,-0.049 -0.42127,0 -0.42127,0.36248 0,0.45066 0.0882,1.34218 0.0882,0.89152 0.0882,1.33238 0,0.22533 -0.20574,0.22533 -0.59761,0 -1.79283,-0.0392 -1.19523,-0.0294 -1.79284,-0.0294 -0.28411,0 -0.28411,-0.28411 0,-1.08746 0.0294,-3.26237 0.0392,-2.18472 0.0392,-3.27218 0,-3.07623 -0.26452,-6.46596 l -0.01,-0.13716 q -0.0196,-0.18614 0.29391,-0.22533 0.76416,-0.098 3.37014,-0.098 1.53812,0 2.94888,0.0392 2.32187,0.0686 3.74242,1.45974 1.44994,1.43035 1.44994,3.74242 z m -3.90897,0.15675 q 0,-2.28268 -2.2239,-2.28268 -1.56751,0 -1.64588,0.17635 -0.0686,0.12736 -0.0686,2.26309 0,0.3037 0.0196,0.90131 0.0294,0.58782 0.0294,0.89152 0,0.19594 1.76344,0.19594 2.12593,0 2.12593,-2.14553 z"
         id="path4179"
         inkscape:connector-curvature="0" />
      <path
         d="m 364.33642,598.00548 q 0,2.23369 -1.37157,3.62486 -1.36177,1.39116 -3.58567,1.39116 -2.15532,0 -3.54649,-1.37157 -1.39116,-1.37157 -1.39116,-3.52689 0,-2.27289 1.33238,-3.68364 1.33238,-1.42056 3.60527,-1.42056 2.2141,0 3.58567,1.39117 1.37157,1.38136 1.37157,3.59547 z m -3.21339,0 q 0,-0.77396 -0.48005,-1.36178 -0.48005,-0.59761 -1.24421,-0.59761 -0.77396,0 -1.2736,0.60741 -0.47025,0.56822 -0.47025,1.35198 0,0.79355 0.47025,1.36177 0.49964,0.60741 1.2736,0.60741 0.76416,0 1.2638,-0.60741 0.46046,-0.56822 0.46046,-1.36177 z"
         id="path4181"
         inkscape:connector-curvature="0" />
      <path
         d="m 379.59023,595.96772 q 0,1.52832 -0.24493,2.12593 -0.25472,0.627 -1.2736,2.33167 -1.03847,1.75364 -1.43035,2.17491 -0.26451,0.28411 -1.29319,0.28411 -0.85233,0 -1.07766,-0.0588 -0.18614,-0.049 -0.34289,-0.19594 -0.55843,-0.54862 -1.72426,-2.69415 -1.23441,2.20431 -1.68507,2.69415 -0.23513,0.25472 -1.2834,0.25472 -0.74457,0 -0.9601,-0.0588 -0.48984,-0.13716 -1.65568,-2.12593 -0.9503,-1.62629 -1.36177,-2.60598 -0.25472,-0.627 -0.25472,-2.12593 0,-1.81243 0.098,-2.21411 0.0686,-0.25472 0.34289,-0.25472 0.45066,0 1.35198,0.0294 0.90131,0.0294 1.35197,0.0294 0.22533,0 0.22533,0.3233 0,0.28411 -0.0196,0.87193 -0.0196,0.57802 -0.0196,0.86213 0,1.18543 0.0588,1.75365 0.0196,0.21553 0.51923,1.10705 0.50944,0.88172 0.627,0.88172 0.17635,0 0.6466,-0.87192 0.38208,-0.73477 0.49964,-1.08746 0.11757,-0.36249 0.11757,-1.77325 0,-0.2939 -0.0588,-0.87192 -0.049,-0.58782 -0.049,-0.87193 0,-0.3037 0.22533,-0.3037 0.27431,0 1.08746,-0.01 l 0.40167,-0.01 q -0.01,0 -0.0392,0 -0.0196,-0.01 -0.01,0 l 0.0686,0 0.25472,0 q 0.37228,-0.01 1.08745,0.0196 0.21554,0.0294 0.21554,0.3037 0,0.37229 -0.049,1.13645 -0.049,0.75436 -0.049,1.12664 0,0.99929 0.0784,1.2638 0.10777,0.3331 0.47026,1.06787 0.44086,0.88172 0.6172,0.88172 0.17635,0 0.6564,-0.89152 0.46045,-0.85233 0.48984,-1.11685 0.0392,-0.37228 0.0392,-3.46811 0,-0.34289 0.19594,-0.34289 0.45066,0 1.35197,-0.0294 0.91112,-0.0294 1.36177,-0.0294 0.26452,0 0.3331,0.27431 0.10777,0.41147 0.10777,2.21411 z"
         id="path4183"
         inkscape:connector-curvature="0" />
      <path
         d="m 389.71045,597.50583 q 0,0.98949 -0.6368,1.12665 -0.10777,0.0196 -2.02797,0.21553 -1.15603,0.12736 -3.44851,0.30371 0.13715,0.6368 0.83274,0.96989 0.56822,0.27432 1.29319,0.27432 0.87193,0 1.75365,-0.47026 0.37228,-0.23512 0.74456,-0.47025 0.20574,0.098 0.68579,0.99929 0.48985,0.90131 0.48985,1.14624 0,0.0686 -0.14696,0.22533 -1.19522,1.28339 -3.71303,1.28339 -2.33167,0 -3.76202,-1.36177 -1.46954,-1.38137 -1.46954,-3.69344 0,-2.25329 1.31279,-3.69344 1.35197,-1.48913 3.58567,-1.48913 1.88101,0 3.1938,1.37157 1.31279,1.37157 1.31279,3.26237 z m -3.42893,-0.59761 q 0,-0.60741 -0.43106,-1.06786 -0.43106,-0.46046 -1.02868,-0.46046 -0.6172,0 -1.01888,0.51924 -0.37228,0.48005 -0.37228,1.12664 0,0.26452 0.27431,0.26452 0.72498,0 2.2533,-0.22533 0.32329,-0.049 0.32329,-0.15675 z"
         id="path4185"
         inkscape:connector-curvature="0" />
      <path
         d="m 397.26387,596.72208 q 0,0.38208 -0.42126,0.38208 -0.18615,0 -0.54863,-0.0196 -0.35269,-0.0294 -0.52904,-0.0294 -0.81314,0 -1.10705,0.25472 -0.29391,0.25472 -0.29391,1.02868 0,0.42127 0.01,1.2834 0.0196,0.85233 0.0196,1.2736 0,0.28411 0.0392,0.85233 0.0392,0.55842 0.0392,0.83274 0,0.23512 -0.3233,0.26452 -0.47025,0.0392 -1.44015,0.0392 -0.9307,0 -1.48913,-0.0588 -0.3233,-0.0392 -0.3233,-0.3233 0,-0.78375 0.01,-2.34146 0.01,-1.56751 0.01,-2.35126 0,-2.30228 -0.42127,-3.79141 -0.0196,-0.0882 -0.0196,-0.14695 0,-0.14696 0.14695,-0.19594 0.53883,-0.0588 1.5773,-0.21554 1.54792,-0.3037 1.5969,-0.3037 0.17635,0 0.22533,0.61721 0.049,0.6172 0.17635,0.6172 -0.13716,0 0.80334,-0.50944 0.94051,-0.51923 1.81243,-0.51923 0.54863,0 0.54863,0.23512 0,0.28411 -0.0588,0.80335 -0.0588,0.55842 -0.0686,0.80335 0,0.28411 0.01,0.75436 0.0196,0.57802 0.0196,0.76416 z"
         id="path4187"
         inkscape:connector-curvature="0" />
      <path
         d="m 407.38409,597.50583 q 0,0.98949 -0.6368,1.12665 -0.10776,0.0196 -2.02796,0.21553 -1.15604,0.12736 -3.44852,0.30371 0.13716,0.6368 0.83274,0.96989 0.56822,0.27432 1.29319,0.27432 0.87193,0 1.75365,-0.47026 0.37229,-0.23512 0.74457,-0.47025 0.20573,0.098 0.68578,0.99929 0.48985,0.90131 0.48985,1.14624 0,0.0686 -0.14695,0.22533 -1.19523,1.28339 -3.71304,1.28339 -2.33166,0 -3.76201,-1.36177 -1.46954,-1.38137 -1.46954,-3.69344 0,-2.25329 1.31278,-3.69344 1.35198,-1.48913 3.58568,-1.48913 1.88101,0 3.19379,1.37157 1.31279,1.37157 1.31279,3.26237 z m -3.42892,-0.59761 q 0,-0.60741 -0.43107,-1.06786 -0.43106,-0.46046 -1.02867,-0.46046 -0.61721,0 -1.01888,0.51924 -0.37228,0.48005 -0.37228,1.12664 0,0.26452 0.27431,0.26452 0.72497,0 2.25329,-0.22533 0.3233,-0.049 0.3233,-0.15675 z"
         id="path4189"
         inkscape:connector-curvature="0" />
      <path
         d="m 418.8269,588.92373 q 0,-0.21553 -0.0784,0.6466 -0.10777,1.08746 -0.16655,2.78232 -0.0784,1.9202 -0.0784,4.36943 0,4.04613 0.22533,5.76059 0.0196,0.18614 0.0196,0.23513 0,0.10776 -0.14695,0.12736 -0.35269,0.049 -2.59619,0.049 -0.52903,0 -0.60741,-0.20574 -0.0196,-0.37228 -0.0392,-0.74456 -0.01,-0.0784 -0.0784,-0.15675 -0.0588,0.0294 -0.14695,0.11756 -1.05807,1.03847 -2.64517,1.03847 -2.06715,0 -3.31136,-1.44994 -1.18543,-1.38137 -1.18543,-3.4877 0,-2.13573 1.16583,-3.5171 1.23442,-1.46954 3.33096,-1.46954 1.47933,0 2.30227,0.94051 0.13716,0.15675 0.19594,0.15675 0.0882,0 0.0882,-0.25472 0,-0.75436 -0.0392,-2.25329 -0.0392,-1.49893 -0.0392,-2.2435 0,-0.28411 0.15675,-0.3233 0.627,-0.0294 1.72426,-0.11756 1.95938,-0.24492 1.73405,-0.24492 0.21554,0 0.21554,0.24492 z m -3.69344,9.00337 q 0,-0.77396 -0.53883,-1.35197 -0.53884,-0.58782 -1.30299,-0.58782 -0.80335,0 -1.2834,0.58782 -0.47025,0.57801 -0.47025,1.39116 0,0.79355 0.48005,1.34218 0.48984,0.58781 1.2736,0.58781 0.78375,0 1.31278,-0.58781 0.52904,-0.58782 0.52904,-1.38137 z"
         id="path4191"
         inkscape:connector-curvature="0" />
      <path
         d="m 435.91273,598.03487 q 0,2.05735 -1.17563,3.43872 -1.25401,1.46953 -3.27217,1.46953 -1.46954,0 -2.37086,-0.84253 -0.0686,-0.0588 -0.11756,-0.0588 -0.098,0 -0.18614,0.36248 -0.0784,0.36249 -0.19594,0.40168 -0.16655,0.049 -2.79212,0.049 -0.61721,0 -0.61721,-0.22533 0,-0.0294 0.0196,-0.14695 0.19594,-1.55771 0.19594,-5.93693 0,-4.18329 -0.2939,-7.27912 l -0.01,-0.10776 q 0,-0.15675 0.3037,-0.17635 0.21554,-0.01 1.70467,-0.14695 1.04827,-0.098 1.70466,-0.098 0.18614,0 0.18614,0.3233 0,0.38208 -0.049,1.00908 -0.0588,0.77396 -0.0686,1.01888 -0.049,0.9699 -0.049,2.64517 0,0.3037 0.15675,0.3037 0.0784,0 0.14695,-0.0784 0.88172,-0.94051 2.31207,-0.94051 2.14553,0 3.35055,1.45974 1.11685,1.35198 1.11685,3.55629 z m -3.54649,-0.10777 q 0,-0.81314 -0.49964,-1.37157 -0.49964,-0.56822 -1.30299,-0.56822 -0.82294,0 -1.30299,0.56822 -0.47025,0.55843 -0.47025,1.39116 0,0.86213 0.46045,1.39117 0.48985,0.55842 1.33238,0.55842 0.83274,0 1.32259,-0.57802 0.46045,-0.53883 0.46045,-1.39116 z"
         id="path4193"
         inkscape:connector-curvature="0" />
      <path
         d="m 446.74812,595.84036 q 0,1.9006 -0.11756,2.31207 -0.14695,0.48985 -2.14553,3.54649 -0.3135,0.48004 -1.61649,2.2239 -1.44015,1.92019 -1.63608,2.02796 -0.23513,0.14695 -3.00766,0.14695 -0.42127,0 -0.56822,-0.098 -0.12736,-0.40167 -0.3233,-0.9503 -0.15675,-0.34289 -0.3135,-0.69558 -0.22533,-0.50944 -0.22533,-0.67599 0,-0.18614 0.16655,-0.18614 2.72354,0 2.72354,-1.24421 0,-0.10776 -1.33238,-1.94958 -1.38137,-1.89081 -1.51852,-2.39045 -0.0784,-0.28411 -0.0784,-2.02797 0,-0.35268 0.0196,-1.05806 0.0196,-0.71518 0.0196,-1.06787 0,-0.25472 0.3233,-0.25472 0.49964,0 1.50872,0.0294 1.01888,0.0294 1.51853,0.0294 0.20573,0 0.20573,0.30371 0,0.27431 -0.0294,0.83274 -0.0294,0.54862 -0.0294,0.82294 0,1.23441 0.0392,1.67527 0.0294,0.34289 0.58781,1.2736 0.58782,0.9699 0.85234,0.9699 0.22533,0 0.76416,-0.9601 0.49964,-0.91112 0.53883,-1.22462 0.098,-0.86213 0.098,-1.87121 0,-0.26452 -0.049,-0.80335 -0.049,-0.53883 -0.049,-0.81314 0,-0.18614 0.20573,-0.18614 0.49965,0 1.48913,-0.0392 0.99929,-0.0392 1.49893,-0.0392 0.25472,0 0.3429,0.25472 0.13715,0.45066 0.13715,2.08675 z"
         id="path4195"
         inkscape:connector-curvature="0" />
    </g>
    <g
       transform="matrix(1.0946926,0,0,1.1021365,-100.90424,-52.5818)"
       style="font-style:normal;font-variant:normal;font-weight:bold;font-stretch:normal;font-size:20.06409454px;line-height:125%;font-family:'Berlin Sans FB Demi';-inkscape-font-specification:'Berlin Sans FB Demi, Bold';text-align:start;letter-spacing:0px;word-spacing:0px;writing-mode:lr-tb;text-anchor:start;fill:#000000;fill-opacity:1;stroke:none;stroke-width:1px;stroke-linecap:butt;stroke-linejoin:miter;stroke-opacity:1"
       id="text4137-7-3">
      <path
         inkscape:connector-curvature="0"
         d="m 459.70945,598.31898 q 0,1.98877 -1.67527,3.40933 -1.46954,1.254 -3.57588,1.59689 -0.0784,0.01 -0.12736,0.01 -0.22533,0 -0.99929,-1.37157 -0.77395,-1.38136 -0.77395,-1.68507 0,-0.10776 0.14695,-0.13715 1.42055,-0.3233 1.88101,-0.54863 1.01888,-0.50944 1.01888,-1.50873 0,-0.6368 -0.66619,-1.42055 -1.15604,-1.33238 -1.25401,-1.47934 -0.67598,-1.01888 -0.67598,-2.25329 0,-1.79284 1.65568,-2.97826 1.35197,-0.9797 3.32115,-1.2736 0.10777,-0.01 0.16655,-0.01 0.14695,0 0.23513,0.23513 0.25472,0.71517 1.18542,2.58638 0.0294,0.0588 0.0294,0.098 0,0.16655 -0.17634,0.16655 -0.0784,0 -0.26452,-0.0294 -0.18614,-0.0294 -0.28411,-0.0294 -0.70538,0 -1.23441,0.3233 -0.6368,0.37228 -0.6368,1.03847 0,0.59761 0.70538,1.46954 1.24421,1.56751 1.30299,1.64588 0.69558,1.07766 0.69558,2.14553 z"
         id="path4197-3" />
      <path
         inkscape:connector-curvature="0"
         d="m 470.91713,592.07834 q 0,0.19594 -0.21553,0.19594 -0.37229,0 -2.94888,-0.14696 -0.0588,2.47862 -0.0588,3.45832 0,1.15603 0.0882,3.4779 0.098,2.32187 0.098,3.47791 0,0.18614 -0.0882,0.23513 -0.0294,0.0196 -0.27431,0.049 -0.58782,0.0784 -1.72426,0.0784 -1.2638,0 -1.77324,-0.0784 -0.27432,-0.049 -0.27432,-0.3037 0,-1.15604 0.098,-3.46811 0.098,-2.31208 0.098,-3.46811 0,-0.76416 -0.0784,-3.40933 -1.95938,0.19594 -3.12521,0.19594 -0.15675,0 -0.15675,-0.098 0,-0.12736 0.13715,-0.75437 0.15675,-0.68578 0.17635,-0.83273 0.0294,-0.46046 0.0686,-0.92091 0.0686,-0.73477 0.23512,-0.73477 0.0196,0 0.13716,0.01 1.5871,0.20574 4.69272,0.20574 0.88173,0 3.25258,-0.18614 1.2736,-0.098 1.2834,-0.098 0.19594,0 0.22533,0.0294 0.0294,0.0196 0.0392,0.18614 0,0.26452 -0.0196,0.73477 -0.0196,0.51924 -0.0196,0.73477 0,0.24492 0.0588,0.72497 0.0686,0.47025 0.0686,0.70538 z"
         id="path4199-7" />
      <path
         inkscape:connector-curvature="0"
         d="m 481.98764,599.77872 q 0,0.42127 -0.16655,1.54791 -0.17634,1.22462 -0.3135,1.45974 -0.11756,0.18615 -0.3233,0.18615 -0.0882,0 -0.29391,-0.0294 -0.71517,-0.098 -4.17348,-0.098 -0.75437,0 -2.2435,-0.01 -1.48913,-0.01 -2.2337,-0.01 -0.3233,0 -0.3233,-0.28411 0,-1.09725 0.11757,-3.29176 0.12736,-2.20431 0.12736,-3.30157 0,-1.11685 -0.11757,-4.16369 -0.0294,-0.78375 -0.10776,-2.34146 l -0.01,-0.13716 q -0.0196,-0.22533 0.24492,-0.22533 0.72498,0 2.17492,0.0392 1.45974,0.0392 2.18471,0.0392 0.71518,0 2.15533,-0.0392 1.44014,-0.0392 2.15532,-0.0392 0.50944,0 0.58782,0.38208 0.049,0.22533 0.14695,1.37157 0.10776,1.13644 0.10776,1.38137 0,0.20573 -0.19593,0.20573 -0.0588,0 -0.20574,-0.01 -2.60598,-0.21553 -4.68293,-0.21553 -0.51923,0 -0.6368,0.24493 -0.049,0.11756 -0.049,0.75436 0,0.66619 0.19594,0.88172 0.16654,0.18614 0.6368,0.18614 0.098,0 0.38208,-0.01 0.28411,-0.0196 0.47025,-0.0196 1.23441,0 2.49821,-0.0686 0.10777,-0.01 0.53883,-0.049 0.3331,-0.0392 0.52904,-0.0392 0.23512,0 0.23512,0.22533 0,-0.20574 -0.17634,1.49893 -0.0784,0.78375 -0.0784,1.56751 0,0.19593 -0.28411,0.19593 0,0 -0.88172,-0.098 -0.55842,-0.0588 -2.5472,-0.0588 l -1.03847,0 q -0.40168,0 -0.47025,0.19594 -0.01,0.049 -0.01,0.60741 0,0.74457 0.098,0.9601 0.16655,0.37228 1.254,0.44086 -0.0196,0 1.43035,0 0.51924,0 1.53812,-0.0882 1.02868,-0.098 1.53812,-0.098 0.21553,0 0.21553,0.35269 z"
         id="path4201-3" />
      <path
         inkscape:connector-curvature="0"
         d="m 493.31288,599.77872 q 0,0.42127 -0.16655,1.54791 -0.17634,1.22462 -0.3135,1.45974 -0.11756,0.18615 -0.3233,0.18615 -0.0882,0 -0.2939,-0.0294 -0.71518,-0.098 -4.17349,-0.098 -0.75437,0 -2.2435,-0.01 -1.48913,-0.01 -2.2337,-0.01 -0.32329,0 -0.32329,-0.28411 0,-1.09725 0.11756,-3.29176 0.12736,-2.20431 0.12736,-3.30157 0,-1.11685 -0.11756,-4.16369 -0.0294,-0.78375 -0.10777,-2.34146 l -0.01,-0.13716 q -0.0196,-0.22533 0.24493,-0.22533 0.72497,0 2.17491,0.0392 1.45974,0.0392 2.18472,0.0392 0.71517,0 2.15532,-0.0392 1.44015,-0.0392 2.15532,-0.0392 0.50944,0 0.58782,0.38208 0.049,0.22533 0.14695,1.37157 0.10777,1.13644 0.10777,1.38137 0,0.20573 -0.19594,0.20573 -0.0588,0 -0.20574,-0.01 -2.60598,-0.21553 -4.68293,-0.21553 -0.51923,0 -0.6368,0.24493 -0.049,0.11756 -0.049,0.75436 0,0.66619 0.19594,0.88172 0.16655,0.18614 0.6368,0.18614 0.098,0 0.38208,-0.01 0.28411,-0.0196 0.47025,-0.0196 1.23441,0 2.49821,-0.0686 0.10777,-0.01 0.53884,-0.049 0.33309,-0.0392 0.52903,-0.0392 0.23513,0 0.23513,0.22533 0,-0.20574 -0.17635,1.49893 -0.0784,0.78375 -0.0784,1.56751 0,0.19593 -0.28412,0.19593 0,0 -0.88172,-0.098 -0.55842,-0.0588 -2.5472,-0.0588 l -1.03847,0 q -0.40168,0 -0.47025,0.19594 -0.01,0.049 -0.01,0.60741 0,0.74457 0.098,0.9601 0.16655,0.37228 1.254,0.44086 -0.0196,0 1.43036,0 0.51923,0 1.53811,-0.0882 1.02868,-0.098 1.53812,-0.098 0.21553,0 0.21553,0.35269 z"
         id="path4203-8" />
      <path
         inkscape:connector-curvature="0"
         d="m 509.21328,602.52186 q 0,0.3037 -0.28411,0.3037 l -3.46811,0 q -0.28411,0 -0.28411,-0.34289 0,-0.98949 0.0686,-2.96847 0.0784,-1.97898 0.0784,-2.96846 0,-0.28412 -0.0882,-0.30371 -0.10776,0.0588 -1.31278,3.02725 -0.70538,1.74385 -1.41076,3.47791 -0.098,0.22533 -0.24492,0.26451 -0.049,0.01 -0.39188,0.01 -0.50944,0 -0.60741,-0.19594 -0.52903,-1.07766 -1.39116,-3.13501 -0.92091,-2.17492 -1.38137,-3.14481 -0.0196,-0.049 -0.0882,-0.10777 -0.0686,0.0882 -0.0686,0.28411 0,0.9601 0.049,2.88029 0.049,1.9202 0.049,2.8803 0,0.34289 -0.27431,0.34289 l -3.27217,0 q -0.19594,0 -0.24493,-0.0588 -0.0392,-0.0686 -0.0392,-0.22533 0,-1.06786 0.098,-3.20359 0.10777,-2.14553 0.10777,-3.21339 0,-1.13645 -0.098,-4.26166 -0.01,-0.81315 -0.0882,-2.41984 l -0.01,-0.16655 q -0.01,-0.19594 0.41147,-0.19594 0.53883,0 1.61649,-0.0294 1.07767,-0.0392 1.6165,-0.0392 0.10776,0 0.3037,0.41147 l 2.8607,6.27983 q 0.30371,0.6368 0.50944,0.6368 0.10777,0 0.46046,-0.73477 0.98949,-2.05735 2.92928,-6.20145 0.16654,-0.38208 0.36248,-0.38208 0.28411,0 0.85233,0.0294 0.57802,0.0294 0.87193,0.0294 0.24492,0 0.74457,-0.049 0.50944,-0.049 0.75436,-0.049 0.29391,0 0.29391,0.23513 0,1.15603 -0.0882,3.45831 -0.0784,2.29248 -0.0784,3.44852 0,1.06786 0.0882,3.20359 0.0882,2.13573 0.0882,3.1938 z"
         id="path4205-4" />
    </g>
  </g>
</svg>
